<svg xmlns="http://www.w3.org/2000/svg" color-interpolation-filters="sRGB" style="margin:auto" transform="scale(1.25)" version="1.0" viewBox="0 0 140 140"><g fill="#333" class="icon-text-wrapper icon-svg-group iconsvg"><g class="iconsvg-imagesvg icon_container" transform="translate(20 20)"><path fill="none" d="M0 0h100v100H0z" class="image-rect"/><svg width="100" height="100" class="image-svg-svg bn" style="overflow:visible" viewBox="0 0 60 60"><g mask="url(#a)"><svg xmlns="http://www.w3.org/2000/svg" width="60" height="60" filter="url(#b)" style="overflow:visible" viewBox="0 0 100 100"><rect width="100" height="100" x="667" y="3121" fill-rule="evenodd" rx="40" transform="translate(-667 -3121)"/><defs><filter id="b"><feColorMatrix values="0 0 0 0 0.19921875 0 0 0 0 0.19921875 0 0 0 0 0.19921875 0 0 0 1 0"/></filter></defs></svg><g filter="url(#c)"><svg xmlns="http://www.w3.org/2000/svg" xmlns:xlink="http://www.w3.org/1999/xlink" width="45" height="45" x="7.5" y="7.5" class="image-svg-letter" viewBox="0 0 60.48 63.648"><path d="m13.9 29.304-.87-5.47-9.93 5.18-3.1-6.26 15.91-8.5L29.16.004l5.47 5.54-.79.86 26.64 14.4-4.25 6.84-27.43-16.05-7.49 7.85-7.41 3.88 31.53-1.8-.57 7.28-30.96.5Zm-9.51 13.54-1.08-6.2 54.79-1.58-.79 7.63-27.72.07-12.09 13.4 23.68-2.38-3.02-4.18 6.12-4.03 9.5 14.62-5.54 3.45-3.02-4.24-34.06 3.81-4.75-5.9 13.46-14.55-15.48.08Z"/></svg></g></g><mask id="a"><svg xmlns="http://www.w3.org/2000/svg" width="60" height="60" fill="#fff" style="overflow:visible" viewBox="0 0 100 100"><rect width="100" height="100" x="667" y="3121" fill-rule="evenodd" rx="40" transform="translate(-667 -3121)"/></svg><svg xmlns="http://www.w3.org/2000/svg" xmlns:xlink="http://www.w3.org/1999/xlink" width="45" height="45" x="7.5" y="7.5" fill="#000" class="image-svg-letter" viewBox="0 0 60.48 63.648"><path d="m13.9 29.304-.87-5.47-9.93 5.18-3.1-6.26 15.91-8.5L29.16.004l5.47 5.54-.79.86 26.64 14.4-4.25 6.84-27.43-16.05-7.49 7.85-7.41 3.88 31.53-1.8-.57 7.28-30.96.5Zm-9.51 13.54-1.08-6.2 54.79-1.58-.79 7.63-27.72.07-12.09 13.4 23.68-2.38-3.02-4.18 6.12-4.03 9.5 14.62-5.54 3.45-3.02-4.24-34.06 3.81-4.75-5.9 13.46-14.55-15.48.08Z"/></svg></mask></svg><defs><filter id="c"><feColorMatrix class="icon-fecolormatrix" values="0 0 0 0 0.19921875 0 0 0 0 0.19921875 0 0 0 0 0.19921875 0 0 0 1 0"/></filter></defs></g></g></svg>